<?xml version="1.0" standalone="no"?>
<!DOCTYPE svg PUBLIC "-//W3C//DTD SVG 20010904//EN"
 "http://www.w3.org/TR/2001/REC-SVG-20010904/DTD/svg10.dtd">
<svg version="1.0" xmlns="http://www.w3.org/2000/svg"
 width="1064.000000pt" height="1064.000000pt" viewBox="0 0 1064.000000 1064.000000"
 preserveAspectRatio="xMidYMid meet">
<metadata>
Created by potrace 1.11, written by Peter Selinger 2001-2013
</metadata>
<g transform="translate(0.000000,1064.000000) scale(0.100000,-0.100000)"
fill="#000000" stroke="none">
<path d="M5936 9929 c-390 -390 -713 -709 -718 -709 -4 0 -8 -4 -8 -8 0 -5
-873 -882 -1939 -1951 l-1940 -1943 1330 -1328 c731 -731 1329 -1333 1329
-1338 0 -6 5 -12 10 -14 6 -2 604 -596 1329 -1321 l1318 -1317 1332 1330 1331
1331 -1331 1330 -1330 1329 1325 1325 c729 729 1326 1329 1326 1334 0 6 -2629
2640 -2653 2658 -1 1 -321 -318 -711 -708z"/>
</g>
</svg>
