<?xml version="1.0" standalone="no"?>
<!DOCTYPE svg PUBLIC "-//W3C//DTD SVG 20010904//EN"
 "http://www.w3.org/TR/2001/REC-SVG-20010904/DTD/svg10.dtd">
<svg version="1.0" xmlns="http://www.w3.org/2000/svg"
 width="500.000000pt" height="500.000000pt" viewBox="0 0 500.000000 500.000000"
 preserveAspectRatio="xMidYMid meet">
<metadata>
Created by potrace 1.11, written by Peter Selinger 2001-2013
</metadata>
<g transform="translate(0.000000,500.000000) scale(0.100000,-0.100000)"
fill="#000000" stroke="none">
<path d="M2410 3903 c-53 -9 -297 -66 -335 -78 -22 -7 -74 -22 -115 -35 -215
-64 -578 -228 -805 -363 -87 -52 -251 -157 -280 -179 -5 -5 -53 -40 -105 -80
-242 -182 -445 -374 -538 -511 -69 -100 -146 -263 -173 -363 -29 -110 -29
-240 0 -315 74 -193 311 -293 691 -292 83 0 291 11 330 17 14 3 52 7 85 11 33
3 67 8 75 10 8 2 31 6 50 9 128 20 289 56 425 95 l130 38 14 -61 c7 -34 15
-66 17 -73 2 -8 58 -12 206 -12 l203 -1 111 222 c61 122 120 227 130 233 10 5
45 27 77 48 32 22 60 37 63 35 3 -4 32 -169 47 -273 33 -221 41 -256 61 -260
12 -3 104 -4 205 -3 l184 3 16 30 c9 17 32 59 52 95 20 36 53 97 74 135 21 39
59 108 85 155 26 47 105 190 175 318 70 127 129 232 132 232 2 0 2 -4 -1 -8
-3 -5 -9 -35 -15 -68 -5 -32 -17 -99 -26 -149 -9 -49 -18 -103 -21 -120 -3
-16 -18 -102 -34 -190 -26 -145 -36 -202 -45 -260 -2 -11 -8 -45 -14 -75 -11
-60 -16 -89 -28 -159 -4 -25 -7 -48 -8 -51 -1 -3 -4 -18 -8 -35 -3 -16 -8 -46
-11 -65 -3 -19 -10 -60 -16 -90 -6 -30 -13 -71 -16 -90 -3 -19 -7 -43 -10 -53
-5 -16 9 -17 227 -15 l233 3 8 35 c4 19 26 143 49 275 23 132 44 242 47 245 2
3 11 -4 20 -15 41 -49 127 -96 204 -111 57 -11 181 -5 242 11 67 18 157 63
201 101 17 14 37 31 46 38 35 25 110 130 142 198 66 139 97 290 92 449 -7 204
-97 356 -244 413 -107 41 -292 26 -402 -33 -54 -30 -71 -43 -140 -108 l-36
-34 14 81 c8 46 12 85 9 87 -2 3 -179 6 -392 6 -377 2 -387 1 -399 -18 -7 -11
-79 -173 -160 -360 -81 -187 -151 -343 -156 -348 -5 -4 -7 -5 -5 -1 2 3 0 20
-4 37 -5 18 -12 52 -15 77 -3 25 -11 72 -16 105 -20 114 -26 101 86 210 268
264 406 616 312 801 -48 94 -147 164 -272 193 -27 6 -61 14 -75 18 -14 3 -95
7 -180 8 l-155 3 -1 79 c0 43 -5 89 -11 103 -15 35 -62 75 -102 89 -33 11
-149 13 -201 4z m161 -104 c48 -19 62 -75 40 -156 -8 -29 -17 -43 -29 -43 -71
-2 -355 -70 -537 -129 -309 -100 -621 -238 -943 -417 -65 -37 -108 -56 -103
-46 14 25 187 200 256 258 148 125 310 232 480 317 127 63 184 87 305 127 140
47 297 85 395 96 28 3 52 7 53 9 5 5 54 -4 83 -16z m97 -513 c220 -51 331
-116 383 -224 31 -65 31 -175 1 -252 -22 -56 -80 -155 -87 -149 -2 2 -5 24 -8
49 -10 90 -28 185 -37 190 -10 6 -398 5 -403 -1 -2 -2 -85 -165 -183 -361 -98
-197 -181 -358 -184 -358 -3 0 -6 8 -6 18 -1 20 -13 187 -20 257 -11 128 -14
156 -20 240 -4 50 -8 99 -9 110 -1 11 -3 38 -4 60 l-1 40 -217 -1 c-145 0
-218 -4 -220 -11 -2 -6 8 -69 22 -139 28 -140 94 -474 101 -514 2 -14 11 -56
19 -95 7 -38 17 -89 20 -112 4 -24 7 -46 8 -50 1 -3 -11 -10 -28 -15 -32 -9
-45 -11 -133 -28 -31 -5 -68 -12 -82 -15 -105 -21 -392 -27 -493 -11 -302 48
-456 209 -407 424 54 232 351 509 755 703 274 131 566 219 820 245 33 4 62 8
64 10 5 5 324 -4 349 -10z m1765 -722 c56 -41 75 -143 50 -264 -27 -131 -73
-208 -147 -245 -101 -51 -203 -19 -242 75 -18 41 -17 146 1 208 7 23 11 42 9
42 -7 0 36 91 57 120 66 88 197 119 272 64z m-1783 -181 c0 -25 -13 -41 -53
-64 -14 -8 -12 1 10 45 28 57 43 64 43 19z"/>
</g>
</svg>
